{
	"asset":{
		"generator":"Khronos glTF Blender I/O v5.1.19",
		"version":"2.0"
	},
	"scene":0,
	"scenes":[
		{
			"name":"Scene",
			"nodes":[
				10
			]
		}
	],
	"nodes":[
		{
			"mesh":0,
			"name":"disk1",
			"translation":[
				0,
				5,
				0
			]
		},
		{
			"mesh":1,
			"name":"disk2",
			"translation":[
				0,
				15,
				0
			]
		},
		{
			"mesh":2,
			"name":"disk3",
			"translation":[
				0,
				25,
				0
			]
		},
		{
			"mesh":3,
			"name":"disk4",
			"translation":[
				0,
				35,
				0
			]
		},
		{
			"mesh":4,
			"name":"disk5",
			"translation":[
				0,
				45,
				0
			]
		},
		{
			"mesh":5,
			"name":"disk6",
			"translation":[
				0,
				55,
				0
			]
		},
		{
			"mesh":6,
			"name":"disk7",
			"translation":[
				0,
				65,
				0
			]
		},
		{
			"children":[
				0,
				1,
				2,
				3,
				4,
				5,
				6
			],
			"name":"tower1",
			"translation":[
				57,
				5,
				0
			]
		},
		{
			"name":"tower2",
			"translation":[
				0,
				5,
				0
			]
		},
		{
			"name":"tower3",
			"translation":[
				-57,
				5,
				0
			]
		},
		{
			"children":[
				7,
				8,
				9
			],
			"mesh":7,
			"name":"hanoi"
		}
	],
	"materials":[
		{
			"doubleSided":true,
			"name":"metal",
			"normalTexture":{
				"index":0
			},
			"pbrMetallicRoughness":{
				"baseColorTexture":{
					"index":1
				},
				"metallicRoughnessTexture":{
					"index":2
				}
			}
		},
		{
			"doubleSided":true,
			"name":"wood",
			"normalTexture":{
				"index":3
			},
			"pbrMetallicRoughness":{
				"baseColorTexture":{
					"index":4
				},
				"metallicFactor":0,
				"metallicRoughnessTexture":{
					"index":5
				}
			}
		}
	],
	"meshes":[
		{
			"name":"Cylinder.007",
			"primitives":[
				{
					"attributes":{
						"POSITION":0,
						"NORMAL":1,
						"TEXCOORD_0":2
					},
					"indices":3,
					"material":0
				}
			]
		},
		{
			"name":"Cylinder.009",
			"primitives":[
				{
					"attributes":{
						"POSITION":4,
						"NORMAL":5,
						"TEXCOORD_0":6
					},
					"indices":7,
					"material":0
				}
			]
		},
		{
			"name":"Cylinder.010",
			"primitives":[
				{
					"attributes":{
						"POSITION":8,
						"NORMAL":9,
						"TEXCOORD_0":10
					},
					"indices":11,
					"material":0
				}
			]
		},
		{
			"name":"Cylinder.011",
			"primitives":[
				{
					"attributes":{
						"POSITION":12,
						"NORMAL":13,
						"TEXCOORD_0":14
					},
					"indices":15,
					"material":0
				}
			]
		},
		{
			"name":"Cylinder.012",
			"primitives":[
				{
					"attributes":{
						"POSITION":16,
						"NORMAL":17,
						"TEXCOORD_0":18
					},
					"indices":19,
					"material":0
				}
			]
		},
		{
			"name":"Cylinder.013",
			"primitives":[
				{
					"attributes":{
						"POSITION":20,
						"NORMAL":21,
						"TEXCOORD_0":22
					},
					"indices":23,
					"material":0
				}
			]
		},
		{
			"name":"Cylinder.015",
			"primitives":[
				{
					"attributes":{
						"POSITION":24,
						"NORMAL":25,
						"TEXCOORD_0":26
					},
					"indices":27,
					"material":0
				}
			]
		},
		{
			"name":"Base",
			"primitives":[
				{
					"attributes":{
						"POSITION":28,
						"NORMAL":29,
						"TEXCOORD_0":30
					},
					"indices":31,
					"material":1
				}
			]
		}
	],
	"textures":[
		{
			"sampler":0,
			"source":0
		},
		{
			"sampler":0,
			"source":1
		},
		{
			"sampler":0,
			"source":2
		},
		{
			"sampler":0,
			"source":3
		},
		{
			"sampler":0,
			"source":4
		},
		{
			"sampler":0,
			"source":5
		}
	],
	"images":[
		{
			"mimeType":"image/png",
			"name":"Metal035_2K-PNG_NormalGL",
			"uri":"Metal035_2K-PNG_NormalGL.png"
		},
		{
			"mimeType":"image/png",
			"name":"Metal035_2K-PNG_Color",
			"uri":"Metal035_2K-PNG_Color.png"
		},
		{
			"mimeType":"image/png",
			"name":"Metal035_2K-PNG_Metalness.png-Metal035_2K-PNG_Roughness.png",
			"uri":"Metal035_2K-PNG_Metalness.png-Metal035_2K-PNG_Roughness.png.png"
		},
		{
			"mimeType":"image/png",
			"name":"Wood051_2K-PNG_NormalGL",
			"uri":"Wood051_2K-PNG_NormalGL.png"
		},
		{
			"mimeType":"image/png",
			"name":"Wood051_2K-PNG_Color",
			"uri":"Wood051_2K-PNG_Color.png"
		},
		{
			"mimeType":"image/png",
			"name":"Wood051_2K-PNG_Roughness",
			"uri":"Wood051_2K-PNG_Roughness.png"
		}
	],
	"accessors":[
		{
			"bufferView":0,
			"componentType":5126,
			"count":574,
			"max":[
				28,
				5.000002384185791,
				28
			],
			"min":[
				-28,
				-5,
				-28
			],
			"type":"VEC3"
		},
		{
			"bufferView":1,
			"componentType":5126,
			"count":574,
			"type":"VEC3"
		},
		{
			"bufferView":2,
			"componentType":5126,
			"count":574,
			"type":"VEC2"
		},
		{
			"bufferView":3,
			"componentType":5123,
			"count":2496,
			"type":"SCALAR"
		},
		{
			"bufferView":4,
			"componentType":5126,
			"count":584,
			"max":[
				26,
				5,
				26
			],
			"min":[
				-26,
				-5,
				-26
			],
			"type":"VEC3"
		},
		{
			"bufferView":5,
			"componentType":5126,
			"count":584,
			"type":"VEC3"
		},
		{
			"bufferView":6,
			"componentType":5126,
			"count":584,
			"type":"VEC2"
		},
		{
			"bufferView":7,
			"componentType":5123,
			"count":2496,
			"type":"SCALAR"
		},
		{
			"bufferView":8,
			"componentType":5126,
			"count":584,
			"max":[
				24,
				5,
				24
			],
			"min":[
				-24,
				-5,
				-24
			],
			"type":"VEC3"
		},
		{
			"bufferView":9,
			"componentType":5126,
			"count":584,
			"type":"VEC3"
		},
		{
			"bufferView":10,
			"componentType":5126,
			"count":584,
			"type":"VEC2"
		},
		{
			"bufferView":11,
			"componentType":5123,
			"count":2496,
			"type":"SCALAR"
		},
		{
			"bufferView":12,
			"componentType":5126,
			"count":584,
			"max":[
				22,
				5,
				22
			],
			"min":[
				-22,
				-5,
				-22
			],
			"type":"VEC3"
		},
		{
			"bufferView":13,
			"componentType":5126,
			"count":584,
			"type":"VEC3"
		},
		{
			"bufferView":14,
			"componentType":5126,
			"count":584,
			"type":"VEC2"
		},
		{
			"bufferView":15,
			"componentType":5123,
			"count":2496,
			"type":"SCALAR"
		},
		{
			"bufferView":16,
			"componentType":5126,
			"count":583,
			"max":[
				20,
				5,
				20
			],
			"min":[
				-20,
				-5,
				-20
			],
			"type":"VEC3"
		},
		{
			"bufferView":17,
			"componentType":5126,
			"count":583,
			"type":"VEC3"
		},
		{
			"bufferView":18,
			"componentType":5126,
			"count":583,
			"type":"VEC2"
		},
		{
			"bufferView":19,
			"componentType":5123,
			"count":2496,
			"type":"SCALAR"
		},
		{
			"bufferView":20,
			"componentType":5126,
			"count":584,
			"max":[
				18,
				5,
				18
			],
			"min":[
				-18,
				-5,
				-18
			],
			"type":"VEC3"
		},
		{
			"bufferView":21,
			"componentType":5126,
			"count":584,
			"type":"VEC3"
		},
		{
			"bufferView":22,
			"componentType":5126,
			"count":584,
			"type":"VEC2"
		},
		{
			"bufferView":23,
			"componentType":5123,
			"count":2496,
			"type":"SCALAR"
		},
		{
			"bufferView":24,
			"componentType":5126,
			"count":584,
			"max":[
				16,
				5,
				16
			],
			"min":[
				-16,
				-5,
				-16
			],
			"type":"VEC3"
		},
		{
			"bufferView":25,
			"componentType":5126,
			"count":584,
			"type":"VEC3"
		},
		{
			"bufferView":26,
			"componentType":5126,
			"count":584,
			"type":"VEC2"
		},
		{
			"bufferView":27,
			"componentType":5123,
			"count":2496,
			"type":"SCALAR"
		},
		{
			"bufferView":28,
			"componentType":5126,
			"count":1509,
			"max":[
				100,
				79.97986602783203,
				50
			],
			"min":[
				-100,
				-5,
				-50
			],
			"type":"VEC3"
		},
		{
			"bufferView":29,
			"componentType":5126,
			"count":1509,
			"type":"VEC3"
		},
		{
			"bufferView":30,
			"componentType":5126,
			"count":1509,
			"type":"VEC2"
		},
		{
			"bufferView":31,
			"componentType":5123,
			"count":6468,
			"type":"SCALAR"
		}
	],
	"bufferViews":[
		{
			"buffer":0,
			"byteLength":6888,
			"byteOffset":0,
			"target":34962
		},
		{
			"buffer":0,
			"byteLength":6888,
			"byteOffset":6888,
			"target":34962
		},
		{
			"buffer":0,
			"byteLength":4592,
			"byteOffset":13776,
			"target":34962
		},
		{
			"buffer":0,
			"byteLength":4992,
			"byteOffset":18368,
			"target":34963
		},
		{
			"buffer":0,
			"byteLength":7008,
			"byteOffset":23360,
			"target":34962
		},
		{
			"buffer":0,
			"byteLength":7008,
			"byteOffset":30368,
			"target":34962
		},
		{
			"buffer":0,
			"byteLength":4672,
			"byteOffset":37376,
			"target":34962
		},
		{
			"buffer":0,
			"byteLength":4992,
			"byteOffset":42048,
			"target":34963
		},
		{
			"buffer":0,
			"byteLength":7008,
			"byteOffset":47040,
			"target":34962
		},
		{
			"buffer":0,
			"byteLength":7008,
			"byteOffset":54048,
			"target":34962
		},
		{
			"buffer":0,
			"byteLength":4672,
			"byteOffset":61056,
			"target":34962
		},
		{
			"buffer":0,
			"byteLength":4992,
			"byteOffset":65728,
			"target":34963
		},
		{
			"buffer":0,
			"byteLength":7008,
			"byteOffset":70720,
			"target":34962
		},
		{
			"buffer":0,
			"byteLength":7008,
			"byteOffset":77728,
			"target":34962
		},
		{
			"buffer":0,
			"byteLength":4672,
			"byteOffset":84736,
			"target":34962
		},
		{
			"buffer":0,
			"byteLength":4992,
			"byteOffset":89408,
			"target":34963
		},
		{
			"buffer":0,
			"byteLength":6996,
			"byteOffset":94400,
			"target":34962
		},
		{
			"buffer":0,
			"byteLength":6996,
			"byteOffset":101396,
			"target":34962
		},
		{
			"buffer":0,
			"byteLength":4664,
			"byteOffset":108392,
			"target":34962
		},
		{
			"buffer":0,
			"byteLength":4992,
			"byteOffset":113056,
			"target":34963
		},
		{
			"buffer":0,
			"byteLength":7008,
			"byteOffset":118048,
			"target":34962
		},
		{
			"buffer":0,
			"byteLength":7008,
			"byteOffset":125056,
			"target":34962
		},
		{
			"buffer":0,
			"byteLength":4672,
			"byteOffset":132064,
			"target":34962
		},
		{
			"buffer":0,
			"byteLength":4992,
			"byteOffset":136736,
			"target":34963
		},
		{
			"buffer":0,
			"byteLength":7008,
			"byteOffset":141728,
			"target":34962
		},
		{
			"buffer":0,
			"byteLength":7008,
			"byteOffset":148736,
			"target":34962
		},
		{
			"buffer":0,
			"byteLength":4672,
			"byteOffset":155744,
			"target":34962
		},
		{
			"buffer":0,
			"byteLength":4992,
			"byteOffset":160416,
			"target":34963
		},
		{
			"buffer":0,
			"byteLength":18108,
			"byteOffset":165408,
			"target":34962
		},
		{
			"buffer":0,
			"byteLength":18108,
			"byteOffset":183516,
			"target":34962
		},
		{
			"buffer":0,
			"byteLength":12072,
			"byteOffset":201624,
			"target":34962
		},
		{
			"buffer":0,
			"byteLength":12936,
			"byteOffset":213696,
			"target":34963
		}
	],
	"samplers":[
		{
			"magFilter":9729,
			"minFilter":9987
		}
	],
	"buffers":[
		{
			"byteLength":226632,
			"uri":"Hanoi.bin"
		}
	]
}
