{
	"asset":{
		"generator":"Khronos glTF Blender I/O v5.1.19",
		"version":"2.0"
	},
	"scene":0,
	"scenes":[
		{
			"name":"Scene",
			"nodes":[
				10
			]
		}
	],
	"nodes":[
		{
			"mesh":0,
			"name":"disk7",
			"translation":[
				0,
				10,
				0
			]
		},
		{
			"children":[
				0
			],
			"mesh":1,
			"name":"disk6",
			"translation":[
				0,
				10,
				0
			]
		},
		{
			"children":[
				1
			],
			"mesh":2,
			"name":"disk5",
			"translation":[
				0,
				10,
				0
			]
		},
		{
			"children":[
				2
			],
			"mesh":3,
			"name":"disk4",
			"translation":[
				0,
				10,
				0
			]
		},
		{
			"children":[
				3
			],
			"mesh":4,
			"name":"disk3",
			"translation":[
				0,
				10,
				0
			]
		},
		{
			"children":[
				4
			],
			"mesh":5,
			"name":"disk2",
			"translation":[
				0,
				10,
				0
			]
		},
		{
			"children":[
				5
			],
			"mesh":6,
			"name":"disk1",
			"translation":[
				0,
				5,
				0
			]
		},
		{
			"children":[
				6
			],
			"name":"tower1",
			"translation":[
				57,
				5,
				0
			]
		},
		{
			"name":"tower2",
			"translation":[
				0,
				5,
				0
			]
		},
		{
			"name":"tower3",
			"translation":[
				-57,
				5,
				0
			]
		},
		{
			"children":[
				7,
				8,
				9
			],
			"mesh":7,
			"name":"hanoi"
		}
	],
	"materials":[
		{
			"doubleSided":true,
			"name":"metal",
			"normalTexture":{
				"index":0
			},
			"pbrMetallicRoughness":{
				"baseColorTexture":{
					"index":1
				},
				"metallicRoughnessTexture":{
					"index":2
				}
			}
		},
		{
			"doubleSided":true,
			"name":"wood",
			"normalTexture":{
				"index":3
			},
			"pbrMetallicRoughness":{
				"baseColorTexture":{
					"index":4
				},
				"metallicFactor":0,
				"metallicRoughnessTexture":{
					"index":5
				}
			}
		}
	],
	"meshes":[
		{
			"name":"Cylinder.014",
			"primitives":[
				{
					"attributes":{
						"POSITION":0,
						"NORMAL":1,
						"TEXCOORD_0":2
					},
					"indices":3,
					"material":0
				}
			]
		},
		{
			"name":"Cylinder.013",
			"primitives":[
				{
					"attributes":{
						"POSITION":4,
						"NORMAL":5,
						"TEXCOORD_0":6
					},
					"indices":3,
					"material":0
				}
			]
		},
		{
			"name":"Cylinder.012",
			"primitives":[
				{
					"attributes":{
						"POSITION":7,
						"NORMAL":8,
						"TEXCOORD_0":9
					},
					"indices":3,
					"material":0
				}
			]
		},
		{
			"name":"Cylinder.011",
			"primitives":[
				{
					"attributes":{
						"POSITION":10,
						"NORMAL":11,
						"TEXCOORD_0":12
					},
					"indices":3,
					"material":0
				}
			]
		},
		{
			"name":"Cylinder.010",
			"primitives":[
				{
					"attributes":{
						"POSITION":13,
						"NORMAL":14,
						"TEXCOORD_0":15
					},
					"indices":3,
					"material":0
				}
			]
		},
		{
			"name":"Cylinder.009",
			"primitives":[
				{
					"attributes":{
						"POSITION":16,
						"NORMAL":17,
						"TEXCOORD_0":18
					},
					"indices":3,
					"material":0
				}
			]
		},
		{
			"name":"Cylinder.008",
			"primitives":[
				{
					"attributes":{
						"POSITION":19,
						"NORMAL":20,
						"TEXCOORD_0":21
					},
					"indices":3,
					"material":0
				}
			]
		},
		{
			"name":"Base",
			"primitives":[
				{
					"attributes":{
						"POSITION":22,
						"NORMAL":23,
						"TEXCOORD_0":24
					},
					"indices":25,
					"material":1
				}
			]
		}
	],
	"textures":[
		{
			"sampler":0,
			"source":0
		},
		{
			"sampler":0,
			"source":1
		},
		{
			"sampler":0,
			"source":2
		},
		{
			"sampler":0,
			"source":3
		},
		{
			"sampler":0,
			"source":4
		},
		{
			"sampler":0,
			"source":5
		}
	],
	"images":[
		{
			"mimeType":"image/png",
			"name":"Metal035_2K-PNG_NormalGL",
			"uri":"Metal035_2K-PNG_NormalGL.png"
		},
		{
			"mimeType":"image/png",
			"name":"Metal035_2K-PNG_Color",
			"uri":"Metal035_2K-PNG_Color.png"
		},
		{
			"mimeType":"image/png",
			"name":"Metal035_2K-PNG_Metalness.png-Metal035_2K-PNG_Roughness.png",
			"uri":"Metal035_2K-PNG_Metalness.png-Metal035_2K-PNG_Roughness.png.png"
		},
		{
			"mimeType":"image/png",
			"name":"Wood051_2K-PNG_NormalGL",
			"uri":"Wood051_2K-PNG_NormalGL.png"
		},
		{
			"mimeType":"image/png",
			"name":"Wood051_2K-PNG_Color",
			"uri":"Wood051_2K-PNG_Color.png"
		},
		{
			"mimeType":"image/png",
			"name":"Wood051_2K-PNG_Roughness",
			"uri":"Wood051_2K-PNG_Roughness.png"
		}
	],
	"accessors":[
		{
			"bufferView":0,
			"componentType":5126,
			"count":1254,
			"max":[
				18,
				5,
				18
			],
			"min":[
				-18,
				-5,
				-18
			],
			"type":"VEC3"
		},
		{
			"bufferView":1,
			"componentType":5126,
			"count":1254,
			"type":"VEC3"
		},
		{
			"bufferView":2,
			"componentType":5126,
			"count":1254,
			"type":"VEC2"
		},
		{
			"bufferView":3,
			"componentType":5123,
			"count":7296,
			"type":"SCALAR"
		},
		{
			"bufferView":4,
			"componentType":5126,
			"count":1254,
			"max":[
				20,
				5,
				20
			],
			"min":[
				-20,
				-5,
				-20
			],
			"type":"VEC3"
		},
		{
			"bufferView":5,
			"componentType":5126,
			"count":1254,
			"type":"VEC3"
		},
		{
			"bufferView":6,
			"componentType":5126,
			"count":1254,
			"type":"VEC2"
		},
		{
			"bufferView":7,
			"componentType":5126,
			"count":1254,
			"max":[
				22,
				5,
				22
			],
			"min":[
				-22,
				-5,
				-22
			],
			"type":"VEC3"
		},
		{
			"bufferView":8,
			"componentType":5126,
			"count":1254,
			"type":"VEC3"
		},
		{
			"bufferView":9,
			"componentType":5126,
			"count":1254,
			"type":"VEC2"
		},
		{
			"bufferView":10,
			"componentType":5126,
			"count":1254,
			"max":[
				24,
				5,
				24
			],
			"min":[
				-24,
				-5,
				-24
			],
			"type":"VEC3"
		},
		{
			"bufferView":11,
			"componentType":5126,
			"count":1254,
			"type":"VEC3"
		},
		{
			"bufferView":12,
			"componentType":5126,
			"count":1254,
			"type":"VEC2"
		},
		{
			"bufferView":13,
			"componentType":5126,
			"count":1254,
			"max":[
				26,
				5,
				26
			],
			"min":[
				-26,
				-5,
				-26
			],
			"type":"VEC3"
		},
		{
			"bufferView":14,
			"componentType":5126,
			"count":1254,
			"type":"VEC3"
		},
		{
			"bufferView":15,
			"componentType":5126,
			"count":1254,
			"type":"VEC2"
		},
		{
			"bufferView":16,
			"componentType":5126,
			"count":1254,
			"max":[
				28,
				5,
				28
			],
			"min":[
				-28,
				-5,
				-28
			],
			"type":"VEC3"
		},
		{
			"bufferView":17,
			"componentType":5126,
			"count":1254,
			"type":"VEC3"
		},
		{
			"bufferView":18,
			"componentType":5126,
			"count":1254,
			"type":"VEC2"
		},
		{
			"bufferView":19,
			"componentType":5126,
			"count":1254,
			"max":[
				30,
				5,
				30
			],
			"min":[
				-30,
				-5,
				-30
			],
			"type":"VEC3"
		},
		{
			"bufferView":20,
			"componentType":5126,
			"count":1254,
			"type":"VEC3"
		},
		{
			"bufferView":21,
			"componentType":5126,
			"count":1254,
			"type":"VEC2"
		},
		{
			"bufferView":22,
			"componentType":5126,
			"count":1541,
			"max":[
				100,
				79.97986602783203,
				50
			],
			"min":[
				-100,
				-5,
				-50
			],
			"type":"VEC3"
		},
		{
			"bufferView":23,
			"componentType":5126,
			"count":1541,
			"type":"VEC3"
		},
		{
			"bufferView":24,
			"componentType":5126,
			"count":1541,
			"type":"VEC2"
		},
		{
			"bufferView":25,
			"componentType":5123,
			"count":6468,
			"type":"SCALAR"
		}
	],
	"bufferViews":[
		{
			"buffer":0,
			"byteLength":15048,
			"byteOffset":0,
			"target":34962
		},
		{
			"buffer":0,
			"byteLength":15048,
			"byteOffset":15048,
			"target":34962
		},
		{
			"buffer":0,
			"byteLength":10032,
			"byteOffset":30096,
			"target":34962
		},
		{
			"buffer":0,
			"byteLength":14592,
			"byteOffset":40128,
			"target":34963
		},
		{
			"buffer":0,
			"byteLength":15048,
			"byteOffset":54720,
			"target":34962
		},
		{
			"buffer":0,
			"byteLength":15048,
			"byteOffset":69768,
			"target":34962
		},
		{
			"buffer":0,
			"byteLength":10032,
			"byteOffset":84816,
			"target":34962
		},
		{
			"buffer":0,
			"byteLength":15048,
			"byteOffset":94848,
			"target":34962
		},
		{
			"buffer":0,
			"byteLength":15048,
			"byteOffset":109896,
			"target":34962
		},
		{
			"buffer":0,
			"byteLength":10032,
			"byteOffset":124944,
			"target":34962
		},
		{
			"buffer":0,
			"byteLength":15048,
			"byteOffset":134976,
			"target":34962
		},
		{
			"buffer":0,
			"byteLength":15048,
			"byteOffset":150024,
			"target":34962
		},
		{
			"buffer":0,
			"byteLength":10032,
			"byteOffset":165072,
			"target":34962
		},
		{
			"buffer":0,
			"byteLength":15048,
			"byteOffset":175104,
			"target":34962
		},
		{
			"buffer":0,
			"byteLength":15048,
			"byteOffset":190152,
			"target":34962
		},
		{
			"buffer":0,
			"byteLength":10032,
			"byteOffset":205200,
			"target":34962
		},
		{
			"buffer":0,
			"byteLength":15048,
			"byteOffset":215232,
			"target":34962
		},
		{
			"buffer":0,
			"byteLength":15048,
			"byteOffset":230280,
			"target":34962
		},
		{
			"buffer":0,
			"byteLength":10032,
			"byteOffset":245328,
			"target":34962
		},
		{
			"buffer":0,
			"byteLength":15048,
			"byteOffset":255360,
			"target":34962
		},
		{
			"buffer":0,
			"byteLength":15048,
			"byteOffset":270408,
			"target":34962
		},
		{
			"buffer":0,
			"byteLength":10032,
			"byteOffset":285456,
			"target":34962
		},
		{
			"buffer":0,
			"byteLength":18492,
			"byteOffset":295488,
			"target":34962
		},
		{
			"buffer":0,
			"byteLength":18492,
			"byteOffset":313980,
			"target":34962
		},
		{
			"buffer":0,
			"byteLength":12328,
			"byteOffset":332472,
			"target":34962
		},
		{
			"buffer":0,
			"byteLength":12936,
			"byteOffset":344800,
			"target":34963
		}
	],
	"samplers":[
		{
			"magFilter":9729,
			"minFilter":9987
		}
	],
	"buffers":[
		{
			"byteLength":357736,
			"uri":"Hanoi.bin"
		}
	]
}
